<svg width="112" height="79" viewBox="0 0 112 79" fill="none" xmlns="http://www.w3.org/2000/svg">
<g filter="url(#filter0_d_1_2)">
<path d="M4 49H13C13.2396 19.0775 44.6978 0.464581 71 10C88.2457 16.2521 98.7334 30.6166 101 49H108C106.693 -16.9519 6.96888 -15.7119 4 49Z" fill="#FC3204"/>
<path d="M13 49H29C30.0063 27.0316 56.3735 14.634 74 27.6127C83.5 32.5 85 43 86.5 49C91.5 49 97.3689 49 101 49C99.6018 31.4304 89.0232 15.9933 72 10.1011C44.8328 0.697727 13.082 19.2779 13 49Z" fill="#FBDC04"/>
<path d="M29 49H42C45.4761 29.8085 69.5213 31.2806 74 49H87C84.3568 38.8097 80.954 30.2956 71 25.1381C52.7663 15.6906 29.4437 28.1721 29 49Z" fill="#0DAF95"/>
<path d="M42 49H58H74C71.0953 30.3885 44.0013 29.587 42 49Z" fill="#0E2372"/>
<path d="M47 49H68C64.2608 38.1005 50.7392 38.1005 47 49Z" fill="#FC3204"/>
<path d="M4 50V71H108V50H4Z" fill="#0E2372"/>
<path d="M14 55V60L16 55H14Z" fill="#0E2372"/>
<path d="M62 55V59L66 58V56L62 55Z" fill="#0E2372"/>
<path d="M77 55V66C81.9807 64.2486 81.0379 59.3717 80 55H77Z" fill="#0E2372"/>
<path d="M27 58C26.254 60.9459 25.8029 62.3114 29 63L27 58Z" fill="#0E2372"/>
<path d="M62 61V66C65.8436 64.7225 65.8436 62.2775 62 61Z" fill="#0E2372"/>
<path d="M10.1792 63.8C10.2503 63.8 10.3614 63.8044 10.5126 63.8133C10.6726 63.8222 10.8237 63.8311 10.9659 63.84C11.1081 63.8489 11.2726 63.8578 11.4592 63.8667C11.6548 63.8667 11.837 63.8667 12.0059 63.8667C12.0326 63.8667 12.0548 63.8667 12.0726 63.8667C12.2414 64.4089 12.3703 65.0844 12.4592 65.8933C12.557 66.6933 12.6326 67.3822 12.6859 67.96C12.7392 68.5289 12.8148 68.8756 12.9126 69H17.8326C17.6459 68.76 17.4726 68.4 17.3126 67.92C17.1614 67.44 17.0237 66.9556 16.8992 66.4667C16.7837 65.9689 16.6459 65.48 16.4859 65C16.3259 64.5111 16.0992 64.0889 15.8059 63.7333C15.5214 63.3778 15.1792 63.1511 14.7792 63.0533C15.517 62.5822 16.1081 61.9467 16.5526 61.1467C17.0059 60.3467 17.2326 59.4311 17.2326 58.4C17.2326 56.6578 16.757 55.3644 15.8059 54.52C14.8637 53.6756 13.4326 53.2533 11.5126 53.2533C10.9614 53.2533 10.2637 53.2756 9.41922 53.32C8.57478 53.3556 7.93922 53.3733 7.51255 53.3733H5.75255V69H10.1792V63.8ZM10.1792 61.32V55.8267H10.4326C11.1881 55.8267 11.7659 55.9822 12.1659 56.2933C12.5748 56.5956 12.7792 57.1333 12.7792 57.9067V58.96C12.7792 59.3156 12.7526 59.6267 12.6992 59.8933C12.6459 60.16 12.5659 60.3778 12.4592 60.5467C12.3526 60.7156 12.237 60.8533 12.1126 60.96C11.997 61.0667 11.8459 61.1467 11.6592 61.2C11.4814 61.2444 11.317 61.2756 11.1659 61.2933C11.0148 61.3111 10.8281 61.32 10.6059 61.32H10.1792ZM27.9498 69H32.8432L28.3898 53.3733H22.8832L23.2032 54.4533L19.1365 69H23.0565L23.5632 66.5067H27.3498L27.9498 69ZM25.2832 57.96L26.6965 63.7867H24.1098L25.2832 57.96ZM35.0091 69H39.5558V53.3733H35.0091V69ZM47.2154 69V64.08L46.4287 58.96L48.3887 62.8267L51.562 69H55.6287V53.3733H51.3754V57.56L52.0287 63.4933L49.682 58.44L47.2287 53.3733H42.322L42.9754 54.6267V69H47.2154ZM64.4685 66.3867H63.4285V62.0533H64.4685C64.9396 62.0533 65.3618 62.1778 65.7352 62.4267C66.1085 62.6667 66.2952 63.0756 66.2952 63.6533V64.5867C66.2952 65.0756 66.1485 65.4978 65.8552 65.8533C65.5618 66.2089 65.0996 66.3867 64.4685 66.3867ZM66.1085 57.3733V57.7067C66.1085 58.2933 65.9707 58.7911 65.6952 59.2C65.4196 59.6 65.024 59.8 64.5085 59.8H63.4285V55.9467H64.4018C64.9529 55.9467 65.3752 56.0533 65.6685 56.2667C65.9618 56.4711 66.1085 56.84 66.1085 57.3733ZM65.3752 69.12C66.344 69.12 67.1885 69 67.9085 68.76C68.6285 68.52 69.1974 68.1867 69.6152 67.76C70.0418 67.3244 70.3574 66.8311 70.5618 66.28C70.7663 65.72 70.8685 65.0978 70.8685 64.4133C70.8685 62.1378 69.8196 60.9067 67.7218 60.72C68.5485 60.5511 69.1796 60.1289 69.6152 59.4533C70.0507 58.7778 70.2685 57.9689 70.2685 57.0267C70.2685 56.4133 70.1796 55.8844 70.0018 55.44C69.8329 54.9956 69.544 54.6044 69.1352 54.2667C68.7263 53.9289 68.1618 53.6756 67.4418 53.5067C66.7307 53.3378 65.8552 53.2533 64.8152 53.2533C64.4952 53.2533 63.9752 53.2756 63.2552 53.32C62.5352 53.3556 61.8952 53.3733 61.3352 53.3733H59.0285V69H60.3085C60.7885 69.0089 61.5796 69.0311 62.6818 69.0667C63.784 69.1022 64.6818 69.12 65.3752 69.12ZM78.2344 62.96V59.6133C78.2344 58.0044 78.3455 56.8978 78.5678 56.2933C78.7989 55.68 79.1989 55.3733 79.7678 55.3733C80.3366 55.3733 80.7455 55.6844 80.9944 56.3067C81.2433 56.9289 81.3678 57.8756 81.3678 59.1467V62.36C81.3678 63.6667 81.31 64.6489 81.1944 65.3067C81.0878 65.9556 80.9278 66.3867 80.7144 66.6C80.5011 66.8044 80.1855 66.9067 79.7678 66.9067C79.1989 66.9067 78.7989 66.6178 78.5678 66.04C78.3455 65.4622 78.2344 64.4356 78.2344 62.96ZM79.4878 69.28C80.5722 69.28 81.51 69.16 82.3011 68.92C83.1011 68.6711 83.7544 68.3333 84.2611 67.9067C84.7678 67.4711 85.1722 66.9111 85.4744 66.2267C85.7766 65.5333 85.9855 64.7911 86.1011 64C86.2166 63.2089 86.2744 62.28 86.2744 61.2133C86.2744 60.4933 86.2522 59.8489 86.2078 59.28C86.1633 58.7111 86.0833 58.1378 85.9678 57.56C85.8522 56.9822 85.6966 56.48 85.5011 56.0533C85.3144 55.6178 85.0611 55.2089 84.7411 54.8267C84.43 54.4444 84.0611 54.1333 83.6344 53.8933C83.2078 53.6533 82.6966 53.4667 82.1011 53.3333C81.5055 53.1911 80.8344 53.12 80.0878 53.12C79.0033 53.12 78.0611 53.2444 77.2611 53.4933C76.47 53.7422 75.8211 54.0844 75.3144 54.52C74.8166 54.9556 74.4166 55.5244 74.1144 56.2267C73.8122 56.92 73.6033 57.6622 73.4878 58.4533C73.3811 59.2444 73.3278 60.1733 73.3278 61.24C73.3278 61.96 73.35 62.6089 73.3944 63.1867C73.4389 63.7556 73.5189 64.3289 73.6344 64.9067C73.75 65.4756 73.9011 65.9733 74.0878 66.4C74.2833 66.8267 74.5366 67.2267 74.8478 67.6C75.1678 67.9733 75.5411 68.28 75.9678 68.52C76.3944 68.76 76.9011 68.9467 77.4878 69.08C78.0833 69.2133 78.75 69.28 79.4878 69.28ZM95.7131 69L97.0864 62.72L98.7264 69H103.273L106.713 53.3733H102.66L101.873 58.76L101.14 63.9867L99.9664 58.76L99.0064 53.3733H94.6464L95.6731 57.3333L95.3264 58.76L93.9797 63.9867L92.9264 58.76L92.2197 53.3733H87.7797L91.4997 69H95.7131Z" fill="white"/>
</g>
<defs>
<filter id="filter0_d_1_2" x="0" y="0" width="113" height="82" filterUnits="userSpaceOnUse" color-interpolation-filters="sRGB">
<feFlood flood-opacity="0" result="BackgroundImageFix"/>
<feColorMatrix in="SourceAlpha" type="matrix" values="0 0 0 0 0 0 0 0 0 0 0 0 0 0 0 0 0 0 127 0" result="hardAlpha"/>
<feOffset dy="4"/>
<feGaussianBlur stdDeviation="2"/>
<feComposite in2="hardAlpha" operator="out"/>
<feColorMatrix type="matrix" values="0 0 0 0 0 0 0 0 0 0 0 0 0 0 0 0 0 0 0.25 0"/>
<feBlend mode="normal" in2="BackgroundImageFix" result="effect1_dropShadow_1_2"/>
<feBlend mode="normal" in="SourceGraphic" in2="effect1_dropShadow_1_2" result="shape"/>
</filter>
</defs>
</svg>
